<mxfile host="app.diagrams.net" modified="2022-05-05T10:52:28.486Z" agent="5.0 (Macintosh; Intel Mac OS X 10_15_7) AppleWebKit/605.1.15 (KHTML, like Gecko) Version/15.3 Safari/605.1.15" etag="kXzqFynhJe4NzpEQzIbS" version="18.0.0" type="github">
  <diagram id="dY5NEKh69HTQG62HvOCs" name="Page-1">
    <mxGraphModel dx="946" dy="645" grid="1" gridSize="10" guides="1" tooltips="1" connect="1" arrows="1" fold="1" page="1" pageScale="1" pageWidth="827" pageHeight="1169" math="0" shadow="0">
      <root>
        <mxCell id="0" />
        <mxCell id="1" parent="0" />
        <mxCell id="hw9l8M9zKiVp5u34tarP-4" value="" style="edgeStyle=orthogonalEdgeStyle;rounded=0;orthogonalLoop=1;jettySize=auto;html=1;" edge="1" parent="1" target="hw9l8M9zKiVp5u34tarP-3">
          <mxGeometry relative="1" as="geometry">
            <mxPoint x="320" y="240" as="sourcePoint" />
          </mxGeometry>
        </mxCell>
        <mxCell id="hw9l8M9zKiVp5u34tarP-13" value="" style="edgeStyle=orthogonalEdgeStyle;rounded=0;orthogonalLoop=1;jettySize=auto;html=1;" edge="1" parent="1" source="hw9l8M9zKiVp5u34tarP-1" target="hw9l8M9zKiVp5u34tarP-12">
          <mxGeometry relative="1" as="geometry" />
        </mxCell>
        <mxCell id="hw9l8M9zKiVp5u34tarP-1" value="시작" style="rounded=1;whiteSpace=wrap;html=1;" vertex="1" parent="1">
          <mxGeometry x="240" y="40" width="160" height="60" as="geometry" />
        </mxCell>
        <mxCell id="hw9l8M9zKiVp5u34tarP-3" value="해당 직업은 월급이 200만원 이상이다." style="whiteSpace=wrap;html=1;rounded=0;" vertex="1" parent="1">
          <mxGeometry x="160" y="320" width="320" height="60" as="geometry" />
        </mxCell>
        <mxCell id="hw9l8M9zKiVp5u34tarP-7" value="" style="edgeStyle=orthogonalEdgeStyle;rounded=0;orthogonalLoop=1;jettySize=auto;html=1;" edge="1" parent="1" target="hw9l8M9zKiVp5u34tarP-8">
          <mxGeometry relative="1" as="geometry">
            <mxPoint x="320" y="380" as="sourcePoint" />
          </mxGeometry>
        </mxCell>
        <mxCell id="hw9l8M9zKiVp5u34tarP-8" value="퇴근시간이 0시에서 17시 사이이다." style="whiteSpace=wrap;html=1;rounded=0;" vertex="1" parent="1">
          <mxGeometry x="160" y="460" width="320" height="60" as="geometry" />
        </mxCell>
        <mxCell id="hw9l8M9zKiVp5u34tarP-11" value="" style="edgeStyle=segmentEdgeStyle;endArrow=classic;html=1;rounded=0;" edge="1" parent="1">
          <mxGeometry width="50" height="50" relative="1" as="geometry">
            <mxPoint x="480" y="350" as="sourcePoint" />
            <mxPoint x="320" y="140" as="targetPoint" />
            <Array as="points">
              <mxPoint x="560" y="350" />
              <mxPoint x="560" y="140" />
            </Array>
          </mxGeometry>
        </mxCell>
        <mxCell id="hw9l8M9zKiVp5u34tarP-12" value="직업" style="shape=parallelogram;perimeter=parallelogramPerimeter;whiteSpace=wrap;html=1;fixedSize=1;rounded=0;" vertex="1" parent="1">
          <mxGeometry x="240" y="180" width="160" height="60" as="geometry" />
        </mxCell>
      </root>
    </mxGraphModel>
  </diagram>
</mxfile>
